# xmcd
#
# Track frame offsets: 
#        150
#        10574
#        25038
#        40035
#        54683
#        73867
#        89855
#        103829
#        117106
#        134080
#        147369
#        164059
#        191622
#        208036
#        227682
#        242134
#        257901
#        274040
#
# Disc length: 3868 seconds
#
# Revision: 0
# Processed by: cddbd v1.5.2PL0 Copyright (c) Steve Scherf et al.
# Submitted via: ExactAudioCopy v1.0b3
#
DISCID=100f1a12
DTITLE=Lil Durk - Signed To The Streets 2 (Mixtape)
DYEAR=2014
DGENRE=Rap
TTITLE0=Ready For Em (Prod Cardo)
TTITLE1=Ten Four (Prod Murda Beatz)
TTITLE2=War Wit Us (Prod Tarentino)
TTITLE3=Rumors (Prod C-Sick)
TTITLE4=Don't Take It Personal (Prod Dree The Drummer)
TTITLE5=Party (Prod Young Chop)
TTITLE6=I Made It (Prod Young Chop)
TTITLE7=Don't Know Me
TTITLE8=Feds Listening (Prod Young Chop)
TTITLE9=WYDTM (Prod Sqaut)
TTITLE10=I Go ft Johnny May Cash (Prod Young Chop)
TTITLE11=Lil Niggaz ft Migos and Cash Out (Prod Dree The Drummer)
TTITLE12=Gas and Mud (Prod Murda Beatz)
TTITLE13=Live It Up (Prod Backpack)
TTITLE14=Perfect Picture (Prod Leekeleek)
TTITLE15=Hell N My City
TTITLE16=Ain't Did Shit (Prod Dree The Drummer)
TTITLE17=Fly High ft French Montana
EXTD=
EXTT0=
EXTT1=
EXTT2=
EXTT3=
EXTT4=
EXTT5=
EXTT6=
EXTT7=
EXTT8=
EXTT9=
EXTT10=
EXTT11=
EXTT12=
EXTT13=
EXTT14=
EXTT15=
EXTT16=
EXTT17=
PLAYORDER=
